<svg width="36" height="36" viewBox="0 0 36 36" fill="none" xmlns="http://www.w3.org/2000/svg">
<path d="M11.25 26.64L18 19.89L24.75 26.64L26.64 24.75L19.89 18L26.64 11.25L24.75 9.36L18 16.11L11.25 9.36L9.36 11.25L16.11 18L9.36 24.75L11.25 26.64ZM18 36C15.54 36 13.215 35.5275 11.025 34.5825C8.835 33.6375 6.9225 32.3475 5.2875 30.7125C3.6525 29.0775 2.3625 27.165 1.4175 24.975C0.4725 22.785 0 20.46 0 18C0 15.51 0.4725 13.17 1.4175 10.98C2.3625 8.79 3.6525 6.885 5.2875 5.265C6.9225 3.645 8.835 2.3625 11.025 1.4175C13.215 0.4725 15.54 0 18 0C20.49 0 22.83 0.4725 25.02 1.4175C27.21 2.3625 29.115 3.645 30.735 5.265C32.355 6.885 33.6375 8.79 34.5825 10.98C35.5275 13.17 36 15.51 36 18C36 20.46 35.5275 22.785 34.5825 24.975C33.6375 27.165 32.355 29.0775 30.735 30.7125C29.115 32.3475 27.21 33.6375 25.02 34.5825C22.83 35.5275 20.49 36 18 36ZM18 33.3C22.26 33.3 25.875 31.8075 28.845 28.8225C31.815 25.8375 33.3 22.23 33.3 18C33.3 13.74 31.815 10.125 28.845 7.155C25.875 4.185 22.26 2.7 18 2.7C13.77 2.7 10.1625 4.185 7.1775 7.155C4.1925 10.125 2.7 13.74 2.7 18C2.7 22.23 4.1925 25.8375 7.1775 28.8225C10.1625 31.8075 13.77 33.3 18 33.3Z" fill="white"/>
</svg>
